%TF.GenerationSoftware,KiCad,Pcbnew,7.0.8*%
%TF.CreationDate,2025-03-09T22:18:45+01:00*%
%TF.ProjectId,Schematics,53636865-6d61-4746-9963-732e6b696361,rev?*%
%TF.SameCoordinates,Original*%
%TF.FileFunction,Legend,Top*%
%TF.FilePolarity,Positive*%
%FSLAX46Y46*%
G04 Gerber Fmt 4.6, Leading zero omitted, Abs format (unit mm)*
G04 Created by KiCad (PCBNEW 7.0.8) date 2025-03-09 22:18:45*
%MOMM*%
%LPD*%
G01*
G04 APERTURE LIST*
%ADD10C,0.150000*%
%ADD11C,0.180000*%
%ADD12C,0.120000*%
%ADD13C,0.127000*%
G04 APERTURE END LIST*
D10*
X160356779Y-94256009D02*
X160690112Y-94256009D01*
X160832969Y-94779819D02*
X160356779Y-94779819D01*
X160356779Y-94779819D02*
X160356779Y-93779819D01*
X160356779Y-93779819D02*
X160832969Y-93779819D01*
X161213922Y-94732200D02*
X161356779Y-94779819D01*
X161356779Y-94779819D02*
X161594874Y-94779819D01*
X161594874Y-94779819D02*
X161690112Y-94732200D01*
X161690112Y-94732200D02*
X161737731Y-94684580D01*
X161737731Y-94684580D02*
X161785350Y-94589342D01*
X161785350Y-94589342D02*
X161785350Y-94494104D01*
X161785350Y-94494104D02*
X161737731Y-94398866D01*
X161737731Y-94398866D02*
X161690112Y-94351247D01*
X161690112Y-94351247D02*
X161594874Y-94303628D01*
X161594874Y-94303628D02*
X161404398Y-94256009D01*
X161404398Y-94256009D02*
X161309160Y-94208390D01*
X161309160Y-94208390D02*
X161261541Y-94160771D01*
X161261541Y-94160771D02*
X161213922Y-94065533D01*
X161213922Y-94065533D02*
X161213922Y-93970295D01*
X161213922Y-93970295D02*
X161261541Y-93875057D01*
X161261541Y-93875057D02*
X161309160Y-93827438D01*
X161309160Y-93827438D02*
X161404398Y-93779819D01*
X161404398Y-93779819D02*
X161642493Y-93779819D01*
X161642493Y-93779819D02*
X161785350Y-93827438D01*
X162213922Y-94779819D02*
X162213922Y-93779819D01*
X162213922Y-93779819D02*
X162594874Y-93779819D01*
X162594874Y-93779819D02*
X162690112Y-93827438D01*
X162690112Y-93827438D02*
X162737731Y-93875057D01*
X162737731Y-93875057D02*
X162785350Y-93970295D01*
X162785350Y-93970295D02*
X162785350Y-94113152D01*
X162785350Y-94113152D02*
X162737731Y-94208390D01*
X162737731Y-94208390D02*
X162690112Y-94256009D01*
X162690112Y-94256009D02*
X162594874Y-94303628D01*
X162594874Y-94303628D02*
X162213922Y-94303628D01*
X163118684Y-93779819D02*
X163737731Y-93779819D01*
X163737731Y-93779819D02*
X163404398Y-94160771D01*
X163404398Y-94160771D02*
X163547255Y-94160771D01*
X163547255Y-94160771D02*
X163642493Y-94208390D01*
X163642493Y-94208390D02*
X163690112Y-94256009D01*
X163690112Y-94256009D02*
X163737731Y-94351247D01*
X163737731Y-94351247D02*
X163737731Y-94589342D01*
X163737731Y-94589342D02*
X163690112Y-94684580D01*
X163690112Y-94684580D02*
X163642493Y-94732200D01*
X163642493Y-94732200D02*
X163547255Y-94779819D01*
X163547255Y-94779819D02*
X163261541Y-94779819D01*
X163261541Y-94779819D02*
X163166303Y-94732200D01*
X163166303Y-94732200D02*
X163118684Y-94684580D01*
X164118684Y-93875057D02*
X164166303Y-93827438D01*
X164166303Y-93827438D02*
X164261541Y-93779819D01*
X164261541Y-93779819D02*
X164499636Y-93779819D01*
X164499636Y-93779819D02*
X164594874Y-93827438D01*
X164594874Y-93827438D02*
X164642493Y-93875057D01*
X164642493Y-93875057D02*
X164690112Y-93970295D01*
X164690112Y-93970295D02*
X164690112Y-94065533D01*
X164690112Y-94065533D02*
X164642493Y-94208390D01*
X164642493Y-94208390D02*
X164071065Y-94779819D01*
X164071065Y-94779819D02*
X164690112Y-94779819D01*
X165832970Y-94732200D02*
X165975827Y-94779819D01*
X165975827Y-94779819D02*
X166213922Y-94779819D01*
X166213922Y-94779819D02*
X166309160Y-94732200D01*
X166309160Y-94732200D02*
X166356779Y-94684580D01*
X166356779Y-94684580D02*
X166404398Y-94589342D01*
X166404398Y-94589342D02*
X166404398Y-94494104D01*
X166404398Y-94494104D02*
X166356779Y-94398866D01*
X166356779Y-94398866D02*
X166309160Y-94351247D01*
X166309160Y-94351247D02*
X166213922Y-94303628D01*
X166213922Y-94303628D02*
X166023446Y-94256009D01*
X166023446Y-94256009D02*
X165928208Y-94208390D01*
X165928208Y-94208390D02*
X165880589Y-94160771D01*
X165880589Y-94160771D02*
X165832970Y-94065533D01*
X165832970Y-94065533D02*
X165832970Y-93970295D01*
X165832970Y-93970295D02*
X165880589Y-93875057D01*
X165880589Y-93875057D02*
X165928208Y-93827438D01*
X165928208Y-93827438D02*
X166023446Y-93779819D01*
X166023446Y-93779819D02*
X166261541Y-93779819D01*
X166261541Y-93779819D02*
X166404398Y-93827438D01*
X167261541Y-94113152D02*
X167261541Y-94779819D01*
X166832970Y-94113152D02*
X166832970Y-94636961D01*
X166832970Y-94636961D02*
X166880589Y-94732200D01*
X166880589Y-94732200D02*
X166975827Y-94779819D01*
X166975827Y-94779819D02*
X167118684Y-94779819D01*
X167118684Y-94779819D02*
X167213922Y-94732200D01*
X167213922Y-94732200D02*
X167261541Y-94684580D01*
X167737732Y-94113152D02*
X167737732Y-95113152D01*
X167737732Y-94160771D02*
X167832970Y-94113152D01*
X167832970Y-94113152D02*
X168023446Y-94113152D01*
X168023446Y-94113152D02*
X168118684Y-94160771D01*
X168118684Y-94160771D02*
X168166303Y-94208390D01*
X168166303Y-94208390D02*
X168213922Y-94303628D01*
X168213922Y-94303628D02*
X168213922Y-94589342D01*
X168213922Y-94589342D02*
X168166303Y-94684580D01*
X168166303Y-94684580D02*
X168118684Y-94732200D01*
X168118684Y-94732200D02*
X168023446Y-94779819D01*
X168023446Y-94779819D02*
X167832970Y-94779819D01*
X167832970Y-94779819D02*
X167737732Y-94732200D01*
X169023446Y-94732200D02*
X168928208Y-94779819D01*
X168928208Y-94779819D02*
X168737732Y-94779819D01*
X168737732Y-94779819D02*
X168642494Y-94732200D01*
X168642494Y-94732200D02*
X168594875Y-94636961D01*
X168594875Y-94636961D02*
X168594875Y-94256009D01*
X168594875Y-94256009D02*
X168642494Y-94160771D01*
X168642494Y-94160771D02*
X168737732Y-94113152D01*
X168737732Y-94113152D02*
X168928208Y-94113152D01*
X168928208Y-94113152D02*
X169023446Y-94160771D01*
X169023446Y-94160771D02*
X169071065Y-94256009D01*
X169071065Y-94256009D02*
X169071065Y-94351247D01*
X169071065Y-94351247D02*
X168594875Y-94446485D01*
X169499637Y-94779819D02*
X169499637Y-94113152D01*
X169499637Y-94303628D02*
X169547256Y-94208390D01*
X169547256Y-94208390D02*
X169594875Y-94160771D01*
X169594875Y-94160771D02*
X169690113Y-94113152D01*
X169690113Y-94113152D02*
X169785351Y-94113152D01*
X170118685Y-94779819D02*
X170118685Y-93779819D01*
X170118685Y-93779819D02*
X170452018Y-94494104D01*
X170452018Y-94494104D02*
X170785351Y-93779819D01*
X170785351Y-93779819D02*
X170785351Y-94779819D01*
X171261542Y-94779819D02*
X171261542Y-94113152D01*
X171261542Y-93779819D02*
X171213923Y-93827438D01*
X171213923Y-93827438D02*
X171261542Y-93875057D01*
X171261542Y-93875057D02*
X171309161Y-93827438D01*
X171309161Y-93827438D02*
X171261542Y-93779819D01*
X171261542Y-93779819D02*
X171261542Y-93875057D01*
X171737732Y-94113152D02*
X171737732Y-94779819D01*
X171737732Y-94208390D02*
X171785351Y-94160771D01*
X171785351Y-94160771D02*
X171880589Y-94113152D01*
X171880589Y-94113152D02*
X172023446Y-94113152D01*
X172023446Y-94113152D02*
X172118684Y-94160771D01*
X172118684Y-94160771D02*
X172166303Y-94256009D01*
X172166303Y-94256009D02*
X172166303Y-94779819D01*
X172642494Y-94779819D02*
X172642494Y-94113152D01*
X172642494Y-93779819D02*
X172594875Y-93827438D01*
X172594875Y-93827438D02*
X172642494Y-93875057D01*
X172642494Y-93875057D02*
X172690113Y-93827438D01*
X172690113Y-93827438D02*
X172642494Y-93779819D01*
X172642494Y-93779819D02*
X172642494Y-93875057D01*
X160118684Y-96485057D02*
X160880588Y-96485057D01*
X160880589Y-96485057D02*
X161642493Y-96485057D01*
X161642494Y-96485057D02*
X162404398Y-96485057D01*
X162404399Y-96485057D02*
X163166303Y-96485057D01*
X163166304Y-96485057D02*
X163928208Y-96485057D01*
X165499637Y-96294580D02*
X165452018Y-96342200D01*
X165452018Y-96342200D02*
X165309161Y-96389819D01*
X165309161Y-96389819D02*
X165213923Y-96389819D01*
X165213923Y-96389819D02*
X165071066Y-96342200D01*
X165071066Y-96342200D02*
X164975828Y-96246961D01*
X164975828Y-96246961D02*
X164928209Y-96151723D01*
X164928209Y-96151723D02*
X164880590Y-95961247D01*
X164880590Y-95961247D02*
X164880590Y-95818390D01*
X164880590Y-95818390D02*
X164928209Y-95627914D01*
X164928209Y-95627914D02*
X164975828Y-95532676D01*
X164975828Y-95532676D02*
X165071066Y-95437438D01*
X165071066Y-95437438D02*
X165213923Y-95389819D01*
X165213923Y-95389819D02*
X165309161Y-95389819D01*
X165309161Y-95389819D02*
X165452018Y-95437438D01*
X165452018Y-95437438D02*
X165499637Y-95485057D01*
X165832971Y-95389819D02*
X166452018Y-95389819D01*
X166452018Y-95389819D02*
X166118685Y-95770771D01*
X166118685Y-95770771D02*
X166261542Y-95770771D01*
X166261542Y-95770771D02*
X166356780Y-95818390D01*
X166356780Y-95818390D02*
X166404399Y-95866009D01*
X166404399Y-95866009D02*
X166452018Y-95961247D01*
X166452018Y-95961247D02*
X166452018Y-96199342D01*
X166452018Y-96199342D02*
X166404399Y-96294580D01*
X166404399Y-96294580D02*
X166356780Y-96342200D01*
X166356780Y-96342200D02*
X166261542Y-96389819D01*
X166261542Y-96389819D02*
X165975828Y-96389819D01*
X165975828Y-96389819D02*
X165880590Y-96342200D01*
X165880590Y-96342200D02*
X165832971Y-96294580D01*
X167404400Y-96485057D02*
X168166304Y-96485057D01*
X168166305Y-96485057D02*
X168928209Y-96485057D01*
X168928210Y-96485057D02*
X169690114Y-96485057D01*
X169690115Y-96485057D02*
X170452019Y-96485057D01*
X170452020Y-96485057D02*
X171213924Y-96485057D01*
X171213925Y-96485057D02*
X171975829Y-96485057D01*
X171975830Y-96485057D02*
X172737734Y-96485057D01*
X127527255Y-100469819D02*
X127717731Y-100469819D01*
X127717731Y-100469819D02*
X127812969Y-100517438D01*
X127812969Y-100517438D02*
X127908207Y-100612676D01*
X127908207Y-100612676D02*
X127955826Y-100803152D01*
X127955826Y-100803152D02*
X127955826Y-101136485D01*
X127955826Y-101136485D02*
X127908207Y-101326961D01*
X127908207Y-101326961D02*
X127812969Y-101422200D01*
X127812969Y-101422200D02*
X127717731Y-101469819D01*
X127717731Y-101469819D02*
X127527255Y-101469819D01*
X127527255Y-101469819D02*
X127432017Y-101422200D01*
X127432017Y-101422200D02*
X127336779Y-101326961D01*
X127336779Y-101326961D02*
X127289160Y-101136485D01*
X127289160Y-101136485D02*
X127289160Y-100803152D01*
X127289160Y-100803152D02*
X127336779Y-100612676D01*
X127336779Y-100612676D02*
X127432017Y-100517438D01*
X127432017Y-100517438D02*
X127527255Y-100469819D01*
X128860588Y-101469819D02*
X128384398Y-101469819D01*
X128384398Y-101469819D02*
X128384398Y-100469819D01*
X129193922Y-100946009D02*
X129527255Y-100946009D01*
X129670112Y-101469819D02*
X129193922Y-101469819D01*
X129193922Y-101469819D02*
X129193922Y-100469819D01*
X129193922Y-100469819D02*
X129670112Y-100469819D01*
X130098684Y-101469819D02*
X130098684Y-100469819D01*
X130098684Y-100469819D02*
X130336779Y-100469819D01*
X130336779Y-100469819D02*
X130479636Y-100517438D01*
X130479636Y-100517438D02*
X130574874Y-100612676D01*
X130574874Y-100612676D02*
X130622493Y-100707914D01*
X130622493Y-100707914D02*
X130670112Y-100898390D01*
X130670112Y-100898390D02*
X130670112Y-101041247D01*
X130670112Y-101041247D02*
X130622493Y-101231723D01*
X130622493Y-101231723D02*
X130574874Y-101326961D01*
X130574874Y-101326961D02*
X130479636Y-101422200D01*
X130479636Y-101422200D02*
X130336779Y-101469819D01*
X130336779Y-101469819D02*
X130098684Y-101469819D01*
X131860589Y-101088866D02*
X132622494Y-101088866D01*
X133812970Y-101422200D02*
X133955827Y-101469819D01*
X133955827Y-101469819D02*
X134193922Y-101469819D01*
X134193922Y-101469819D02*
X134289160Y-101422200D01*
X134289160Y-101422200D02*
X134336779Y-101374580D01*
X134336779Y-101374580D02*
X134384398Y-101279342D01*
X134384398Y-101279342D02*
X134384398Y-101184104D01*
X134384398Y-101184104D02*
X134336779Y-101088866D01*
X134336779Y-101088866D02*
X134289160Y-101041247D01*
X134289160Y-101041247D02*
X134193922Y-100993628D01*
X134193922Y-100993628D02*
X134003446Y-100946009D01*
X134003446Y-100946009D02*
X133908208Y-100898390D01*
X133908208Y-100898390D02*
X133860589Y-100850771D01*
X133860589Y-100850771D02*
X133812970Y-100755533D01*
X133812970Y-100755533D02*
X133812970Y-100660295D01*
X133812970Y-100660295D02*
X133860589Y-100565057D01*
X133860589Y-100565057D02*
X133908208Y-100517438D01*
X133908208Y-100517438D02*
X134003446Y-100469819D01*
X134003446Y-100469819D02*
X134241541Y-100469819D01*
X134241541Y-100469819D02*
X134384398Y-100517438D01*
X134765351Y-101422200D02*
X134908208Y-101469819D01*
X134908208Y-101469819D02*
X135146303Y-101469819D01*
X135146303Y-101469819D02*
X135241541Y-101422200D01*
X135241541Y-101422200D02*
X135289160Y-101374580D01*
X135289160Y-101374580D02*
X135336779Y-101279342D01*
X135336779Y-101279342D02*
X135336779Y-101184104D01*
X135336779Y-101184104D02*
X135289160Y-101088866D01*
X135289160Y-101088866D02*
X135241541Y-101041247D01*
X135241541Y-101041247D02*
X135146303Y-100993628D01*
X135146303Y-100993628D02*
X134955827Y-100946009D01*
X134955827Y-100946009D02*
X134860589Y-100898390D01*
X134860589Y-100898390D02*
X134812970Y-100850771D01*
X134812970Y-100850771D02*
X134765351Y-100755533D01*
X134765351Y-100755533D02*
X134765351Y-100660295D01*
X134765351Y-100660295D02*
X134812970Y-100565057D01*
X134812970Y-100565057D02*
X134860589Y-100517438D01*
X134860589Y-100517438D02*
X134955827Y-100469819D01*
X134955827Y-100469819D02*
X135193922Y-100469819D01*
X135193922Y-100469819D02*
X135336779Y-100517438D01*
X135765351Y-101469819D02*
X135765351Y-100469819D01*
X135765351Y-100469819D02*
X136003446Y-100469819D01*
X136003446Y-100469819D02*
X136146303Y-100517438D01*
X136146303Y-100517438D02*
X136241541Y-100612676D01*
X136241541Y-100612676D02*
X136289160Y-100707914D01*
X136289160Y-100707914D02*
X136336779Y-100898390D01*
X136336779Y-100898390D02*
X136336779Y-101041247D01*
X136336779Y-101041247D02*
X136289160Y-101231723D01*
X136289160Y-101231723D02*
X136241541Y-101326961D01*
X136241541Y-101326961D02*
X136146303Y-101422200D01*
X136146303Y-101422200D02*
X136003446Y-101469819D01*
X136003446Y-101469819D02*
X135765351Y-101469819D01*
X137289160Y-101469819D02*
X136717732Y-101469819D01*
X137003446Y-101469819D02*
X137003446Y-100469819D01*
X137003446Y-100469819D02*
X136908208Y-100612676D01*
X136908208Y-100612676D02*
X136812970Y-100707914D01*
X136812970Y-100707914D02*
X136717732Y-100755533D01*
X137622494Y-100469819D02*
X138241541Y-100469819D01*
X138241541Y-100469819D02*
X137908208Y-100850771D01*
X137908208Y-100850771D02*
X138051065Y-100850771D01*
X138051065Y-100850771D02*
X138146303Y-100898390D01*
X138146303Y-100898390D02*
X138193922Y-100946009D01*
X138193922Y-100946009D02*
X138241541Y-101041247D01*
X138241541Y-101041247D02*
X138241541Y-101279342D01*
X138241541Y-101279342D02*
X138193922Y-101374580D01*
X138193922Y-101374580D02*
X138146303Y-101422200D01*
X138146303Y-101422200D02*
X138051065Y-101469819D01*
X138051065Y-101469819D02*
X137765351Y-101469819D01*
X137765351Y-101469819D02*
X137670113Y-101422200D01*
X137670113Y-101422200D02*
X137622494Y-101374580D01*
X138860589Y-100469819D02*
X138955827Y-100469819D01*
X138955827Y-100469819D02*
X139051065Y-100517438D01*
X139051065Y-100517438D02*
X139098684Y-100565057D01*
X139098684Y-100565057D02*
X139146303Y-100660295D01*
X139146303Y-100660295D02*
X139193922Y-100850771D01*
X139193922Y-100850771D02*
X139193922Y-101088866D01*
X139193922Y-101088866D02*
X139146303Y-101279342D01*
X139146303Y-101279342D02*
X139098684Y-101374580D01*
X139098684Y-101374580D02*
X139051065Y-101422200D01*
X139051065Y-101422200D02*
X138955827Y-101469819D01*
X138955827Y-101469819D02*
X138860589Y-101469819D01*
X138860589Y-101469819D02*
X138765351Y-101422200D01*
X138765351Y-101422200D02*
X138717732Y-101374580D01*
X138717732Y-101374580D02*
X138670113Y-101279342D01*
X138670113Y-101279342D02*
X138622494Y-101088866D01*
X138622494Y-101088866D02*
X138622494Y-100850771D01*
X138622494Y-100850771D02*
X138670113Y-100660295D01*
X138670113Y-100660295D02*
X138717732Y-100565057D01*
X138717732Y-100565057D02*
X138765351Y-100517438D01*
X138765351Y-100517438D02*
X138860589Y-100469819D01*
X140051065Y-100469819D02*
X139860589Y-100469819D01*
X139860589Y-100469819D02*
X139765351Y-100517438D01*
X139765351Y-100517438D02*
X139717732Y-100565057D01*
X139717732Y-100565057D02*
X139622494Y-100707914D01*
X139622494Y-100707914D02*
X139574875Y-100898390D01*
X139574875Y-100898390D02*
X139574875Y-101279342D01*
X139574875Y-101279342D02*
X139622494Y-101374580D01*
X139622494Y-101374580D02*
X139670113Y-101422200D01*
X139670113Y-101422200D02*
X139765351Y-101469819D01*
X139765351Y-101469819D02*
X139955827Y-101469819D01*
X139955827Y-101469819D02*
X140051065Y-101422200D01*
X140051065Y-101422200D02*
X140098684Y-101374580D01*
X140098684Y-101374580D02*
X140146303Y-101279342D01*
X140146303Y-101279342D02*
X140146303Y-101041247D01*
X140146303Y-101041247D02*
X140098684Y-100946009D01*
X140098684Y-100946009D02*
X140051065Y-100898390D01*
X140051065Y-100898390D02*
X139955827Y-100850771D01*
X139955827Y-100850771D02*
X139765351Y-100850771D01*
X139765351Y-100850771D02*
X139670113Y-100898390D01*
X139670113Y-100898390D02*
X139622494Y-100946009D01*
X139622494Y-100946009D02*
X139574875Y-101041247D01*
X141336780Y-101088866D02*
X142098685Y-101088866D01*
X143098684Y-101469819D02*
X142527256Y-101469819D01*
X142812970Y-101469819D02*
X142812970Y-100469819D01*
X142812970Y-100469819D02*
X142717732Y-100612676D01*
X142717732Y-100612676D02*
X142622494Y-100707914D01*
X142622494Y-100707914D02*
X142527256Y-100755533D01*
X143479637Y-100565057D02*
X143527256Y-100517438D01*
X143527256Y-100517438D02*
X143622494Y-100469819D01*
X143622494Y-100469819D02*
X143860589Y-100469819D01*
X143860589Y-100469819D02*
X143955827Y-100517438D01*
X143955827Y-100517438D02*
X144003446Y-100565057D01*
X144003446Y-100565057D02*
X144051065Y-100660295D01*
X144051065Y-100660295D02*
X144051065Y-100755533D01*
X144051065Y-100755533D02*
X144003446Y-100898390D01*
X144003446Y-100898390D02*
X143432018Y-101469819D01*
X143432018Y-101469819D02*
X144051065Y-101469819D01*
X144622494Y-100898390D02*
X144527256Y-100850771D01*
X144527256Y-100850771D02*
X144479637Y-100803152D01*
X144479637Y-100803152D02*
X144432018Y-100707914D01*
X144432018Y-100707914D02*
X144432018Y-100660295D01*
X144432018Y-100660295D02*
X144479637Y-100565057D01*
X144479637Y-100565057D02*
X144527256Y-100517438D01*
X144527256Y-100517438D02*
X144622494Y-100469819D01*
X144622494Y-100469819D02*
X144812970Y-100469819D01*
X144812970Y-100469819D02*
X144908208Y-100517438D01*
X144908208Y-100517438D02*
X144955827Y-100565057D01*
X144955827Y-100565057D02*
X145003446Y-100660295D01*
X145003446Y-100660295D02*
X145003446Y-100707914D01*
X145003446Y-100707914D02*
X144955827Y-100803152D01*
X144955827Y-100803152D02*
X144908208Y-100850771D01*
X144908208Y-100850771D02*
X144812970Y-100898390D01*
X144812970Y-100898390D02*
X144622494Y-100898390D01*
X144622494Y-100898390D02*
X144527256Y-100946009D01*
X144527256Y-100946009D02*
X144479637Y-100993628D01*
X144479637Y-100993628D02*
X144432018Y-101088866D01*
X144432018Y-101088866D02*
X144432018Y-101279342D01*
X144432018Y-101279342D02*
X144479637Y-101374580D01*
X144479637Y-101374580D02*
X144527256Y-101422200D01*
X144527256Y-101422200D02*
X144622494Y-101469819D01*
X144622494Y-101469819D02*
X144812970Y-101469819D01*
X144812970Y-101469819D02*
X144908208Y-101422200D01*
X144908208Y-101422200D02*
X144955827Y-101374580D01*
X144955827Y-101374580D02*
X145003446Y-101279342D01*
X145003446Y-101279342D02*
X145003446Y-101088866D01*
X145003446Y-101088866D02*
X144955827Y-100993628D01*
X144955827Y-100993628D02*
X144908208Y-100946009D01*
X144908208Y-100946009D02*
X144812970Y-100898390D01*
X145336780Y-101469819D02*
X145860589Y-100803152D01*
X145336780Y-100803152D02*
X145860589Y-101469819D01*
X146670113Y-100469819D02*
X146479637Y-100469819D01*
X146479637Y-100469819D02*
X146384399Y-100517438D01*
X146384399Y-100517438D02*
X146336780Y-100565057D01*
X146336780Y-100565057D02*
X146241542Y-100707914D01*
X146241542Y-100707914D02*
X146193923Y-100898390D01*
X146193923Y-100898390D02*
X146193923Y-101279342D01*
X146193923Y-101279342D02*
X146241542Y-101374580D01*
X146241542Y-101374580D02*
X146289161Y-101422200D01*
X146289161Y-101422200D02*
X146384399Y-101469819D01*
X146384399Y-101469819D02*
X146574875Y-101469819D01*
X146574875Y-101469819D02*
X146670113Y-101422200D01*
X146670113Y-101422200D02*
X146717732Y-101374580D01*
X146717732Y-101374580D02*
X146765351Y-101279342D01*
X146765351Y-101279342D02*
X146765351Y-101041247D01*
X146765351Y-101041247D02*
X146717732Y-100946009D01*
X146717732Y-100946009D02*
X146670113Y-100898390D01*
X146670113Y-100898390D02*
X146574875Y-100850771D01*
X146574875Y-100850771D02*
X146384399Y-100850771D01*
X146384399Y-100850771D02*
X146289161Y-100898390D01*
X146289161Y-100898390D02*
X146241542Y-100946009D01*
X146241542Y-100946009D02*
X146193923Y-101041247D01*
X147622494Y-100803152D02*
X147622494Y-101469819D01*
X147384399Y-100422200D02*
X147146304Y-101136485D01*
X147146304Y-101136485D02*
X147765351Y-101136485D01*
X157100588Y-121837438D02*
X157005350Y-121789819D01*
X157005350Y-121789819D02*
X156862493Y-121789819D01*
X156862493Y-121789819D02*
X156719636Y-121837438D01*
X156719636Y-121837438D02*
X156624398Y-121932676D01*
X156624398Y-121932676D02*
X156576779Y-122027914D01*
X156576779Y-122027914D02*
X156529160Y-122218390D01*
X156529160Y-122218390D02*
X156529160Y-122361247D01*
X156529160Y-122361247D02*
X156576779Y-122551723D01*
X156576779Y-122551723D02*
X156624398Y-122646961D01*
X156624398Y-122646961D02*
X156719636Y-122742200D01*
X156719636Y-122742200D02*
X156862493Y-122789819D01*
X156862493Y-122789819D02*
X156957731Y-122789819D01*
X156957731Y-122789819D02*
X157100588Y-122742200D01*
X157100588Y-122742200D02*
X157148207Y-122694580D01*
X157148207Y-122694580D02*
X157148207Y-122361247D01*
X157148207Y-122361247D02*
X156957731Y-122361247D01*
X157576779Y-122789819D02*
X157576779Y-121789819D01*
X157576779Y-121789819D02*
X158148207Y-122789819D01*
X158148207Y-122789819D02*
X158148207Y-121789819D01*
X158624398Y-122789819D02*
X158624398Y-121789819D01*
X158624398Y-121789819D02*
X158862493Y-121789819D01*
X158862493Y-121789819D02*
X159005350Y-121837438D01*
X159005350Y-121837438D02*
X159100588Y-121932676D01*
X159100588Y-121932676D02*
X159148207Y-122027914D01*
X159148207Y-122027914D02*
X159195826Y-122218390D01*
X159195826Y-122218390D02*
X159195826Y-122361247D01*
X159195826Y-122361247D02*
X159148207Y-122551723D01*
X159148207Y-122551723D02*
X159100588Y-122646961D01*
X159100588Y-122646961D02*
X159005350Y-122742200D01*
X159005350Y-122742200D02*
X158862493Y-122789819D01*
X158862493Y-122789819D02*
X158624398Y-122789819D01*
X161005351Y-121789819D02*
X161338684Y-122789819D01*
X161338684Y-122789819D02*
X161672017Y-121789819D01*
X162576779Y-122694580D02*
X162529160Y-122742200D01*
X162529160Y-122742200D02*
X162386303Y-122789819D01*
X162386303Y-122789819D02*
X162291065Y-122789819D01*
X162291065Y-122789819D02*
X162148208Y-122742200D01*
X162148208Y-122742200D02*
X162052970Y-122646961D01*
X162052970Y-122646961D02*
X162005351Y-122551723D01*
X162005351Y-122551723D02*
X161957732Y-122361247D01*
X161957732Y-122361247D02*
X161957732Y-122218390D01*
X161957732Y-122218390D02*
X162005351Y-122027914D01*
X162005351Y-122027914D02*
X162052970Y-121932676D01*
X162052970Y-121932676D02*
X162148208Y-121837438D01*
X162148208Y-121837438D02*
X162291065Y-121789819D01*
X162291065Y-121789819D02*
X162386303Y-121789819D01*
X162386303Y-121789819D02*
X162529160Y-121837438D01*
X162529160Y-121837438D02*
X162576779Y-121885057D01*
X163576779Y-122694580D02*
X163529160Y-122742200D01*
X163529160Y-122742200D02*
X163386303Y-122789819D01*
X163386303Y-122789819D02*
X163291065Y-122789819D01*
X163291065Y-122789819D02*
X163148208Y-122742200D01*
X163148208Y-122742200D02*
X163052970Y-122646961D01*
X163052970Y-122646961D02*
X163005351Y-122551723D01*
X163005351Y-122551723D02*
X162957732Y-122361247D01*
X162957732Y-122361247D02*
X162957732Y-122218390D01*
X162957732Y-122218390D02*
X163005351Y-122027914D01*
X163005351Y-122027914D02*
X163052970Y-121932676D01*
X163052970Y-121932676D02*
X163148208Y-121837438D01*
X163148208Y-121837438D02*
X163291065Y-121789819D01*
X163291065Y-121789819D02*
X163386303Y-121789819D01*
X163386303Y-121789819D02*
X163529160Y-121837438D01*
X163529160Y-121837438D02*
X163576779Y-121885057D01*
X166243447Y-122742200D02*
X166386304Y-122789819D01*
X166386304Y-122789819D02*
X166624399Y-122789819D01*
X166624399Y-122789819D02*
X166719637Y-122742200D01*
X166719637Y-122742200D02*
X166767256Y-122694580D01*
X166767256Y-122694580D02*
X166814875Y-122599342D01*
X166814875Y-122599342D02*
X166814875Y-122504104D01*
X166814875Y-122504104D02*
X166767256Y-122408866D01*
X166767256Y-122408866D02*
X166719637Y-122361247D01*
X166719637Y-122361247D02*
X166624399Y-122313628D01*
X166624399Y-122313628D02*
X166433923Y-122266009D01*
X166433923Y-122266009D02*
X166338685Y-122218390D01*
X166338685Y-122218390D02*
X166291066Y-122170771D01*
X166291066Y-122170771D02*
X166243447Y-122075533D01*
X166243447Y-122075533D02*
X166243447Y-121980295D01*
X166243447Y-121980295D02*
X166291066Y-121885057D01*
X166291066Y-121885057D02*
X166338685Y-121837438D01*
X166338685Y-121837438D02*
X166433923Y-121789819D01*
X166433923Y-121789819D02*
X166672018Y-121789819D01*
X166672018Y-121789819D02*
X166814875Y-121837438D01*
X167814875Y-122694580D02*
X167767256Y-122742200D01*
X167767256Y-122742200D02*
X167624399Y-122789819D01*
X167624399Y-122789819D02*
X167529161Y-122789819D01*
X167529161Y-122789819D02*
X167386304Y-122742200D01*
X167386304Y-122742200D02*
X167291066Y-122646961D01*
X167291066Y-122646961D02*
X167243447Y-122551723D01*
X167243447Y-122551723D02*
X167195828Y-122361247D01*
X167195828Y-122361247D02*
X167195828Y-122218390D01*
X167195828Y-122218390D02*
X167243447Y-122027914D01*
X167243447Y-122027914D02*
X167291066Y-121932676D01*
X167291066Y-121932676D02*
X167386304Y-121837438D01*
X167386304Y-121837438D02*
X167529161Y-121789819D01*
X167529161Y-121789819D02*
X167624399Y-121789819D01*
X167624399Y-121789819D02*
X167767256Y-121837438D01*
X167767256Y-121837438D02*
X167814875Y-121885057D01*
X168719637Y-122789819D02*
X168243447Y-122789819D01*
X168243447Y-122789819D02*
X168243447Y-121789819D01*
X171291067Y-122742200D02*
X171433924Y-122789819D01*
X171433924Y-122789819D02*
X171672019Y-122789819D01*
X171672019Y-122789819D02*
X171767257Y-122742200D01*
X171767257Y-122742200D02*
X171814876Y-122694580D01*
X171814876Y-122694580D02*
X171862495Y-122599342D01*
X171862495Y-122599342D02*
X171862495Y-122504104D01*
X171862495Y-122504104D02*
X171814876Y-122408866D01*
X171814876Y-122408866D02*
X171767257Y-122361247D01*
X171767257Y-122361247D02*
X171672019Y-122313628D01*
X171672019Y-122313628D02*
X171481543Y-122266009D01*
X171481543Y-122266009D02*
X171386305Y-122218390D01*
X171386305Y-122218390D02*
X171338686Y-122170771D01*
X171338686Y-122170771D02*
X171291067Y-122075533D01*
X171291067Y-122075533D02*
X171291067Y-121980295D01*
X171291067Y-121980295D02*
X171338686Y-121885057D01*
X171338686Y-121885057D02*
X171386305Y-121837438D01*
X171386305Y-121837438D02*
X171481543Y-121789819D01*
X171481543Y-121789819D02*
X171719638Y-121789819D01*
X171719638Y-121789819D02*
X171862495Y-121837438D01*
X172291067Y-122789819D02*
X172291067Y-121789819D01*
X172291067Y-121789819D02*
X172529162Y-121789819D01*
X172529162Y-121789819D02*
X172672019Y-121837438D01*
X172672019Y-121837438D02*
X172767257Y-121932676D01*
X172767257Y-121932676D02*
X172814876Y-122027914D01*
X172814876Y-122027914D02*
X172862495Y-122218390D01*
X172862495Y-122218390D02*
X172862495Y-122361247D01*
X172862495Y-122361247D02*
X172814876Y-122551723D01*
X172814876Y-122551723D02*
X172767257Y-122646961D01*
X172767257Y-122646961D02*
X172672019Y-122742200D01*
X172672019Y-122742200D02*
X172529162Y-122789819D01*
X172529162Y-122789819D02*
X172291067Y-122789819D01*
X173243448Y-122504104D02*
X173719638Y-122504104D01*
X173148210Y-122789819D02*
X173481543Y-121789819D01*
X173481543Y-121789819D02*
X173814876Y-122789819D01*
D11*
X124826040Y-87878544D02*
X124826040Y-88126163D01*
X125321278Y-87878544D02*
X125321278Y-88126163D01*
X126868896Y-89178544D02*
X126868896Y-87878544D01*
X126868896Y-87878544D02*
X127178420Y-87878544D01*
X127178420Y-87878544D02*
X127364134Y-87940449D01*
X127364134Y-87940449D02*
X127487944Y-88064259D01*
X127487944Y-88064259D02*
X127549849Y-88188068D01*
X127549849Y-88188068D02*
X127611753Y-88435687D01*
X127611753Y-88435687D02*
X127611753Y-88621401D01*
X127611753Y-88621401D02*
X127549849Y-88869020D01*
X127549849Y-88869020D02*
X127487944Y-88992830D01*
X127487944Y-88992830D02*
X127364134Y-89116640D01*
X127364134Y-89116640D02*
X127178420Y-89178544D01*
X127178420Y-89178544D02*
X126868896Y-89178544D01*
X128664134Y-89116640D02*
X128540325Y-89178544D01*
X128540325Y-89178544D02*
X128292706Y-89178544D01*
X128292706Y-89178544D02*
X128168896Y-89116640D01*
X128168896Y-89116640D02*
X128106992Y-88992830D01*
X128106992Y-88992830D02*
X128106992Y-88497592D01*
X128106992Y-88497592D02*
X128168896Y-88373782D01*
X128168896Y-88373782D02*
X128292706Y-88311878D01*
X128292706Y-88311878D02*
X128540325Y-88311878D01*
X128540325Y-88311878D02*
X128664134Y-88373782D01*
X128664134Y-88373782D02*
X128726039Y-88497592D01*
X128726039Y-88497592D02*
X128726039Y-88621401D01*
X128726039Y-88621401D02*
X128106992Y-88745211D01*
X129097468Y-88311878D02*
X129592706Y-88311878D01*
X129283182Y-87878544D02*
X129283182Y-88992830D01*
X129283182Y-88992830D02*
X129345087Y-89116640D01*
X129345087Y-89116640D02*
X129468897Y-89178544D01*
X129468897Y-89178544D02*
X129592706Y-89178544D01*
X130954611Y-89116640D02*
X131078420Y-89178544D01*
X131078420Y-89178544D02*
X131326039Y-89178544D01*
X131326039Y-89178544D02*
X131449849Y-89116640D01*
X131449849Y-89116640D02*
X131511753Y-88992830D01*
X131511753Y-88992830D02*
X131511753Y-88930925D01*
X131511753Y-88930925D02*
X131449849Y-88807116D01*
X131449849Y-88807116D02*
X131326039Y-88745211D01*
X131326039Y-88745211D02*
X131140325Y-88745211D01*
X131140325Y-88745211D02*
X131016515Y-88683306D01*
X131016515Y-88683306D02*
X130954611Y-88559497D01*
X130954611Y-88559497D02*
X130954611Y-88497592D01*
X130954611Y-88497592D02*
X131016515Y-88373782D01*
X131016515Y-88373782D02*
X131140325Y-88311878D01*
X131140325Y-88311878D02*
X131326039Y-88311878D01*
X131326039Y-88311878D02*
X131449849Y-88373782D01*
X132254611Y-89178544D02*
X132130801Y-89116640D01*
X132130801Y-89116640D02*
X132068896Y-89054735D01*
X132068896Y-89054735D02*
X132006992Y-88930925D01*
X132006992Y-88930925D02*
X132006992Y-88559497D01*
X132006992Y-88559497D02*
X132068896Y-88435687D01*
X132068896Y-88435687D02*
X132130801Y-88373782D01*
X132130801Y-88373782D02*
X132254611Y-88311878D01*
X132254611Y-88311878D02*
X132440325Y-88311878D01*
X132440325Y-88311878D02*
X132564134Y-88373782D01*
X132564134Y-88373782D02*
X132626039Y-88435687D01*
X132626039Y-88435687D02*
X132687944Y-88559497D01*
X132687944Y-88559497D02*
X132687944Y-88930925D01*
X132687944Y-88930925D02*
X132626039Y-89054735D01*
X132626039Y-89054735D02*
X132564134Y-89116640D01*
X132564134Y-89116640D02*
X132440325Y-89178544D01*
X132440325Y-89178544D02*
X132254611Y-89178544D01*
X133245086Y-89178544D02*
X133245086Y-88311878D01*
X133245086Y-88435687D02*
X133306991Y-88373782D01*
X133306991Y-88373782D02*
X133430801Y-88311878D01*
X133430801Y-88311878D02*
X133616515Y-88311878D01*
X133616515Y-88311878D02*
X133740324Y-88373782D01*
X133740324Y-88373782D02*
X133802229Y-88497592D01*
X133802229Y-88497592D02*
X133802229Y-89178544D01*
X133802229Y-88497592D02*
X133864134Y-88373782D01*
X133864134Y-88373782D02*
X133987943Y-88311878D01*
X133987943Y-88311878D02*
X134173658Y-88311878D01*
X134173658Y-88311878D02*
X134297467Y-88373782D01*
X134297467Y-88373782D02*
X134359372Y-88497592D01*
X134359372Y-88497592D02*
X134359372Y-89178544D01*
X135906991Y-89116640D02*
X136030800Y-89178544D01*
X136030800Y-89178544D02*
X136278419Y-89178544D01*
X136278419Y-89178544D02*
X136402229Y-89116640D01*
X136402229Y-89116640D02*
X136464133Y-88992830D01*
X136464133Y-88992830D02*
X136464133Y-88930925D01*
X136464133Y-88930925D02*
X136402229Y-88807116D01*
X136402229Y-88807116D02*
X136278419Y-88745211D01*
X136278419Y-88745211D02*
X136092705Y-88745211D01*
X136092705Y-88745211D02*
X135968895Y-88683306D01*
X135968895Y-88683306D02*
X135906991Y-88559497D01*
X135906991Y-88559497D02*
X135906991Y-88497592D01*
X135906991Y-88497592D02*
X135968895Y-88373782D01*
X135968895Y-88373782D02*
X136092705Y-88311878D01*
X136092705Y-88311878D02*
X136278419Y-88311878D01*
X136278419Y-88311878D02*
X136402229Y-88373782D01*
X137578419Y-89178544D02*
X137578419Y-88497592D01*
X137578419Y-88497592D02*
X137516514Y-88373782D01*
X137516514Y-88373782D02*
X137392705Y-88311878D01*
X137392705Y-88311878D02*
X137145086Y-88311878D01*
X137145086Y-88311878D02*
X137021276Y-88373782D01*
X137578419Y-89116640D02*
X137454610Y-89178544D01*
X137454610Y-89178544D02*
X137145086Y-89178544D01*
X137145086Y-89178544D02*
X137021276Y-89116640D01*
X137021276Y-89116640D02*
X136959372Y-88992830D01*
X136959372Y-88992830D02*
X136959372Y-88869020D01*
X136959372Y-88869020D02*
X137021276Y-88745211D01*
X137021276Y-88745211D02*
X137145086Y-88683306D01*
X137145086Y-88683306D02*
X137454610Y-88683306D01*
X137454610Y-88683306D02*
X137578419Y-88621401D01*
X137021276Y-87878544D02*
X137083181Y-87940449D01*
X137083181Y-87940449D02*
X137021276Y-88002354D01*
X137021276Y-88002354D02*
X136959372Y-87940449D01*
X136959372Y-87940449D02*
X137021276Y-87878544D01*
X137021276Y-87878544D02*
X137021276Y-88002354D01*
X137516514Y-87878544D02*
X137578419Y-87940449D01*
X137578419Y-87940449D02*
X137516514Y-88002354D01*
X137516514Y-88002354D02*
X137454610Y-87940449D01*
X137454610Y-87940449D02*
X137516514Y-87878544D01*
X137516514Y-87878544D02*
X137516514Y-88002354D01*
X138754609Y-88311878D02*
X138754609Y-89364259D01*
X138754609Y-89364259D02*
X138692704Y-89488068D01*
X138692704Y-89488068D02*
X138630800Y-89549973D01*
X138630800Y-89549973D02*
X138506990Y-89611878D01*
X138506990Y-89611878D02*
X138321276Y-89611878D01*
X138321276Y-89611878D02*
X138197466Y-89549973D01*
X138754609Y-89116640D02*
X138630800Y-89178544D01*
X138630800Y-89178544D02*
X138383181Y-89178544D01*
X138383181Y-89178544D02*
X138259371Y-89116640D01*
X138259371Y-89116640D02*
X138197466Y-89054735D01*
X138197466Y-89054735D02*
X138135562Y-88930925D01*
X138135562Y-88930925D02*
X138135562Y-88559497D01*
X138135562Y-88559497D02*
X138197466Y-88435687D01*
X138197466Y-88435687D02*
X138259371Y-88373782D01*
X138259371Y-88373782D02*
X138383181Y-88311878D01*
X138383181Y-88311878D02*
X138630800Y-88311878D01*
X138630800Y-88311878D02*
X138754609Y-88373782D01*
X139311752Y-89116640D02*
X139435561Y-89178544D01*
X139435561Y-89178544D02*
X139683180Y-89178544D01*
X139683180Y-89178544D02*
X139806990Y-89116640D01*
X139806990Y-89116640D02*
X139868894Y-88992830D01*
X139868894Y-88992830D02*
X139868894Y-88930925D01*
X139868894Y-88930925D02*
X139806990Y-88807116D01*
X139806990Y-88807116D02*
X139683180Y-88745211D01*
X139683180Y-88745211D02*
X139497466Y-88745211D01*
X139497466Y-88745211D02*
X139373656Y-88683306D01*
X139373656Y-88683306D02*
X139311752Y-88559497D01*
X139311752Y-88559497D02*
X139311752Y-88497592D01*
X139311752Y-88497592D02*
X139373656Y-88373782D01*
X139373656Y-88373782D02*
X139497466Y-88311878D01*
X139497466Y-88311878D02*
X139683180Y-88311878D01*
X139683180Y-88311878D02*
X139806990Y-88373782D01*
X141416513Y-89178544D02*
X141416513Y-88311878D01*
X141416513Y-87878544D02*
X141354609Y-87940449D01*
X141354609Y-87940449D02*
X141416513Y-88002354D01*
X141416513Y-88002354D02*
X141478418Y-87940449D01*
X141478418Y-87940449D02*
X141416513Y-87878544D01*
X141416513Y-87878544D02*
X141416513Y-88002354D01*
X143026037Y-89178544D02*
X143026037Y-87878544D01*
X143026037Y-88373782D02*
X143149847Y-88311878D01*
X143149847Y-88311878D02*
X143397466Y-88311878D01*
X143397466Y-88311878D02*
X143521275Y-88373782D01*
X143521275Y-88373782D02*
X143583180Y-88435687D01*
X143583180Y-88435687D02*
X143645085Y-88559497D01*
X143645085Y-88559497D02*
X143645085Y-88930925D01*
X143645085Y-88930925D02*
X143583180Y-89054735D01*
X143583180Y-89054735D02*
X143521275Y-89116640D01*
X143521275Y-89116640D02*
X143397466Y-89178544D01*
X143397466Y-89178544D02*
X143149847Y-89178544D01*
X143149847Y-89178544D02*
X143026037Y-89116640D01*
X144759370Y-89178544D02*
X144759370Y-88497592D01*
X144759370Y-88497592D02*
X144697465Y-88373782D01*
X144697465Y-88373782D02*
X144573656Y-88311878D01*
X144573656Y-88311878D02*
X144326037Y-88311878D01*
X144326037Y-88311878D02*
X144202227Y-88373782D01*
X144759370Y-89116640D02*
X144635561Y-89178544D01*
X144635561Y-89178544D02*
X144326037Y-89178544D01*
X144326037Y-89178544D02*
X144202227Y-89116640D01*
X144202227Y-89116640D02*
X144140323Y-88992830D01*
X144140323Y-88992830D02*
X144140323Y-88869020D01*
X144140323Y-88869020D02*
X144202227Y-88745211D01*
X144202227Y-88745211D02*
X144326037Y-88683306D01*
X144326037Y-88683306D02*
X144635561Y-88683306D01*
X144635561Y-88683306D02*
X144759370Y-88621401D01*
X145316513Y-89116640D02*
X145440322Y-89178544D01*
X145440322Y-89178544D02*
X145687941Y-89178544D01*
X145687941Y-89178544D02*
X145811751Y-89116640D01*
X145811751Y-89116640D02*
X145873655Y-88992830D01*
X145873655Y-88992830D02*
X145873655Y-88930925D01*
X145873655Y-88930925D02*
X145811751Y-88807116D01*
X145811751Y-88807116D02*
X145687941Y-88745211D01*
X145687941Y-88745211D02*
X145502227Y-88745211D01*
X145502227Y-88745211D02*
X145378417Y-88683306D01*
X145378417Y-88683306D02*
X145316513Y-88559497D01*
X145316513Y-88559497D02*
X145316513Y-88497592D01*
X145316513Y-88497592D02*
X145378417Y-88373782D01*
X145378417Y-88373782D02*
X145502227Y-88311878D01*
X145502227Y-88311878D02*
X145687941Y-88311878D01*
X145687941Y-88311878D02*
X145811751Y-88373782D01*
X146245084Y-88311878D02*
X146740322Y-88311878D01*
X146430798Y-87878544D02*
X146430798Y-88992830D01*
X146430798Y-88992830D02*
X146492703Y-89116640D01*
X146492703Y-89116640D02*
X146616513Y-89178544D01*
X146616513Y-89178544D02*
X146740322Y-89178544D01*
X147730798Y-88311878D02*
X147730798Y-89178544D01*
X147173655Y-88311878D02*
X147173655Y-88992830D01*
X147173655Y-88992830D02*
X147235560Y-89116640D01*
X147235560Y-89116640D02*
X147359370Y-89178544D01*
X147359370Y-89178544D02*
X147545084Y-89178544D01*
X147545084Y-89178544D02*
X147668893Y-89116640D01*
X147668893Y-89116640D02*
X147730798Y-89054735D01*
X148349845Y-88311878D02*
X148349845Y-89178544D01*
X148349845Y-88435687D02*
X148411750Y-88373782D01*
X148411750Y-88373782D02*
X148535560Y-88311878D01*
X148535560Y-88311878D02*
X148721274Y-88311878D01*
X148721274Y-88311878D02*
X148845083Y-88373782D01*
X148845083Y-88373782D02*
X148906988Y-88497592D01*
X148906988Y-88497592D02*
X148906988Y-89178544D01*
X149587940Y-89116640D02*
X149587940Y-89178544D01*
X149587940Y-89178544D02*
X149526035Y-89302354D01*
X149526035Y-89302354D02*
X149464131Y-89364259D01*
X124826040Y-91209640D02*
X124949849Y-91271544D01*
X124949849Y-91271544D02*
X125197468Y-91271544D01*
X125197468Y-91271544D02*
X125321278Y-91209640D01*
X125321278Y-91209640D02*
X125383182Y-91085830D01*
X125383182Y-91085830D02*
X125383182Y-91023925D01*
X125383182Y-91023925D02*
X125321278Y-90900116D01*
X125321278Y-90900116D02*
X125197468Y-90838211D01*
X125197468Y-90838211D02*
X125011754Y-90838211D01*
X125011754Y-90838211D02*
X124887944Y-90776306D01*
X124887944Y-90776306D02*
X124826040Y-90652497D01*
X124826040Y-90652497D02*
X124826040Y-90590592D01*
X124826040Y-90590592D02*
X124887944Y-90466782D01*
X124887944Y-90466782D02*
X125011754Y-90404878D01*
X125011754Y-90404878D02*
X125197468Y-90404878D01*
X125197468Y-90404878D02*
X125321278Y-90466782D01*
X125754611Y-90404878D02*
X126249849Y-90404878D01*
X125940325Y-89971544D02*
X125940325Y-91085830D01*
X125940325Y-91085830D02*
X126002230Y-91209640D01*
X126002230Y-91209640D02*
X126126040Y-91271544D01*
X126126040Y-91271544D02*
X126249849Y-91271544D01*
X127240325Y-91271544D02*
X127240325Y-90590592D01*
X127240325Y-90590592D02*
X127178420Y-90466782D01*
X127178420Y-90466782D02*
X127054611Y-90404878D01*
X127054611Y-90404878D02*
X126806992Y-90404878D01*
X126806992Y-90404878D02*
X126683182Y-90466782D01*
X127240325Y-91209640D02*
X127116516Y-91271544D01*
X127116516Y-91271544D02*
X126806992Y-91271544D01*
X126806992Y-91271544D02*
X126683182Y-91209640D01*
X126683182Y-91209640D02*
X126621278Y-91085830D01*
X126621278Y-91085830D02*
X126621278Y-90962020D01*
X126621278Y-90962020D02*
X126683182Y-90838211D01*
X126683182Y-90838211D02*
X126806992Y-90776306D01*
X126806992Y-90776306D02*
X127116516Y-90776306D01*
X127116516Y-90776306D02*
X127240325Y-90714401D01*
X127859372Y-90404878D02*
X127859372Y-91271544D01*
X127859372Y-90528687D02*
X127921277Y-90466782D01*
X127921277Y-90466782D02*
X128045087Y-90404878D01*
X128045087Y-90404878D02*
X128230801Y-90404878D01*
X128230801Y-90404878D02*
X128354610Y-90466782D01*
X128354610Y-90466782D02*
X128416515Y-90590592D01*
X128416515Y-90590592D02*
X128416515Y-91271544D01*
X129035562Y-90404878D02*
X129035562Y-91271544D01*
X129035562Y-90528687D02*
X129097467Y-90466782D01*
X129097467Y-90466782D02*
X129221277Y-90404878D01*
X129221277Y-90404878D02*
X129406991Y-90404878D01*
X129406991Y-90404878D02*
X129530800Y-90466782D01*
X129530800Y-90466782D02*
X129592705Y-90590592D01*
X129592705Y-90590592D02*
X129592705Y-91271544D01*
X130768895Y-91271544D02*
X130768895Y-90590592D01*
X130768895Y-90590592D02*
X130706990Y-90466782D01*
X130706990Y-90466782D02*
X130583181Y-90404878D01*
X130583181Y-90404878D02*
X130335562Y-90404878D01*
X130335562Y-90404878D02*
X130211752Y-90466782D01*
X130768895Y-91209640D02*
X130645086Y-91271544D01*
X130645086Y-91271544D02*
X130335562Y-91271544D01*
X130335562Y-91271544D02*
X130211752Y-91209640D01*
X130211752Y-91209640D02*
X130149848Y-91085830D01*
X130149848Y-91085830D02*
X130149848Y-90962020D01*
X130149848Y-90962020D02*
X130211752Y-90838211D01*
X130211752Y-90838211D02*
X130335562Y-90776306D01*
X130335562Y-90776306D02*
X130645086Y-90776306D01*
X130645086Y-90776306D02*
X130768895Y-90714401D01*
X131387942Y-91271544D02*
X131387942Y-90404878D01*
X131387942Y-90652497D02*
X131449847Y-90528687D01*
X131449847Y-90528687D02*
X131511752Y-90466782D01*
X131511752Y-90466782D02*
X131635561Y-90404878D01*
X131635561Y-90404878D02*
X131759371Y-90404878D01*
X133183180Y-91271544D02*
X133183180Y-90404878D01*
X133183180Y-89971544D02*
X133121276Y-90033449D01*
X133121276Y-90033449D02*
X133183180Y-90095354D01*
X133183180Y-90095354D02*
X133245085Y-90033449D01*
X133245085Y-90033449D02*
X133183180Y-89971544D01*
X133183180Y-89971544D02*
X133183180Y-90095354D01*
X134792704Y-91271544D02*
X134792704Y-89971544D01*
X134792704Y-90466782D02*
X134916514Y-90404878D01*
X134916514Y-90404878D02*
X135164133Y-90404878D01*
X135164133Y-90404878D02*
X135287942Y-90466782D01*
X135287942Y-90466782D02*
X135349847Y-90528687D01*
X135349847Y-90528687D02*
X135411752Y-90652497D01*
X135411752Y-90652497D02*
X135411752Y-91023925D01*
X135411752Y-91023925D02*
X135349847Y-91147735D01*
X135349847Y-91147735D02*
X135287942Y-91209640D01*
X135287942Y-91209640D02*
X135164133Y-91271544D01*
X135164133Y-91271544D02*
X134916514Y-91271544D01*
X134916514Y-91271544D02*
X134792704Y-91209640D01*
X136526037Y-91271544D02*
X136526037Y-90590592D01*
X136526037Y-90590592D02*
X136464132Y-90466782D01*
X136464132Y-90466782D02*
X136340323Y-90404878D01*
X136340323Y-90404878D02*
X136092704Y-90404878D01*
X136092704Y-90404878D02*
X135968894Y-90466782D01*
X136526037Y-91209640D02*
X136402228Y-91271544D01*
X136402228Y-91271544D02*
X136092704Y-91271544D01*
X136092704Y-91271544D02*
X135968894Y-91209640D01*
X135968894Y-91209640D02*
X135906990Y-91085830D01*
X135906990Y-91085830D02*
X135906990Y-90962020D01*
X135906990Y-90962020D02*
X135968894Y-90838211D01*
X135968894Y-90838211D02*
X136092704Y-90776306D01*
X136092704Y-90776306D02*
X136402228Y-90776306D01*
X136402228Y-90776306D02*
X136526037Y-90714401D01*
X137083180Y-91209640D02*
X137206989Y-91271544D01*
X137206989Y-91271544D02*
X137454608Y-91271544D01*
X137454608Y-91271544D02*
X137578418Y-91209640D01*
X137578418Y-91209640D02*
X137640322Y-91085830D01*
X137640322Y-91085830D02*
X137640322Y-91023925D01*
X137640322Y-91023925D02*
X137578418Y-90900116D01*
X137578418Y-90900116D02*
X137454608Y-90838211D01*
X137454608Y-90838211D02*
X137268894Y-90838211D01*
X137268894Y-90838211D02*
X137145084Y-90776306D01*
X137145084Y-90776306D02*
X137083180Y-90652497D01*
X137083180Y-90652497D02*
X137083180Y-90590592D01*
X137083180Y-90590592D02*
X137145084Y-90466782D01*
X137145084Y-90466782D02*
X137268894Y-90404878D01*
X137268894Y-90404878D02*
X137454608Y-90404878D01*
X137454608Y-90404878D02*
X137578418Y-90466782D01*
X138011751Y-90404878D02*
X138506989Y-90404878D01*
X138197465Y-89971544D02*
X138197465Y-91085830D01*
X138197465Y-91085830D02*
X138259370Y-91209640D01*
X138259370Y-91209640D02*
X138383180Y-91271544D01*
X138383180Y-91271544D02*
X138506989Y-91271544D01*
X139497465Y-90404878D02*
X139497465Y-91271544D01*
X138940322Y-90404878D02*
X138940322Y-91085830D01*
X138940322Y-91085830D02*
X139002227Y-91209640D01*
X139002227Y-91209640D02*
X139126037Y-91271544D01*
X139126037Y-91271544D02*
X139311751Y-91271544D01*
X139311751Y-91271544D02*
X139435560Y-91209640D01*
X139435560Y-91209640D02*
X139497465Y-91147735D01*
X140116512Y-90404878D02*
X140116512Y-91271544D01*
X140116512Y-90528687D02*
X140178417Y-90466782D01*
X140178417Y-90466782D02*
X140302227Y-90404878D01*
X140302227Y-90404878D02*
X140487941Y-90404878D01*
X140487941Y-90404878D02*
X140611750Y-90466782D01*
X140611750Y-90466782D02*
X140673655Y-90590592D01*
X140673655Y-90590592D02*
X140673655Y-91271544D01*
X142221274Y-89971544D02*
X142221274Y-90219163D01*
X142716512Y-89971544D02*
X142716512Y-90219163D01*
D10*
X178467319Y-91566904D02*
X179276842Y-91566904D01*
X179276842Y-91566904D02*
X179372080Y-91519285D01*
X179372080Y-91519285D02*
X179419700Y-91471666D01*
X179419700Y-91471666D02*
X179467319Y-91376428D01*
X179467319Y-91376428D02*
X179467319Y-91185952D01*
X179467319Y-91185952D02*
X179419700Y-91090714D01*
X179419700Y-91090714D02*
X179372080Y-91043095D01*
X179372080Y-91043095D02*
X179276842Y-90995476D01*
X179276842Y-90995476D02*
X178467319Y-90995476D01*
X179467319Y-89995476D02*
X179467319Y-90566904D01*
X179467319Y-90281190D02*
X178467319Y-90281190D01*
X178467319Y-90281190D02*
X178610176Y-90376428D01*
X178610176Y-90376428D02*
X178705414Y-90471666D01*
X178705414Y-90471666D02*
X178753033Y-90566904D01*
D12*
%TO.C,Display1*%
X123760000Y-94380000D02*
X151160000Y-94380000D01*
X151160000Y-94380000D02*
X151160000Y-121680000D01*
X151160000Y-121680000D02*
X123760000Y-121680000D01*
X123760000Y-121680000D02*
X123760000Y-94380000D01*
X147282000Y-114275000D02*
X124182000Y-114275000D01*
X124182000Y-114275000D02*
X124182000Y-97675000D01*
X124182000Y-97675000D02*
X147282000Y-97675000D01*
X132461000Y-94869000D02*
X142240000Y-94869000D01*
X142240000Y-94869000D02*
X142240000Y-97282000D01*
X142240000Y-97282000D02*
X132461000Y-97282000D01*
X132461000Y-94869000D02*
X132461000Y-97282000D01*
X147282000Y-97675000D02*
X150368000Y-97675000D01*
X147282000Y-114275000D02*
X150622000Y-114300000D01*
X150622000Y-114300000D02*
X150622000Y-97663000D01*
X150622000Y-97663000D02*
X150368000Y-97675000D01*
D13*
%TO.C,U1*%
X176710000Y-92020000D02*
X176710000Y-87520000D01*
X178010000Y-92020000D02*
X176710000Y-92020000D01*
X178010000Y-101020000D02*
X176710000Y-101020000D01*
X178010000Y-101020000D02*
X178010000Y-92020000D01*
X154010000Y-87520000D02*
X176710000Y-87520000D01*
X176710000Y-105520000D02*
X176710000Y-101020000D01*
X154010000Y-105520000D02*
X176710000Y-105520000D01*
X154010000Y-105520000D02*
X154010000Y-87520000D01*
%TD*%
M02*
