%TF.GenerationSoftware,KiCad,Pcbnew,7.0.8*%
%TF.CreationDate,2025-03-09T22:18:45+01:00*%
%TF.ProjectId,Schematics,53636865-6d61-4746-9963-732e6b696361,rev?*%
%TF.SameCoordinates,Original*%
%TF.FileFunction,Copper,L1,Top*%
%TF.FilePolarity,Positive*%
%FSLAX46Y46*%
G04 Gerber Fmt 4.6, Leading zero omitted, Abs format (unit mm)*
G04 Created by KiCad (PCBNEW 7.0.8) date 2025-03-09 22:18:45*
%MOMM*%
%LPD*%
G01*
G04 APERTURE LIST*
%TA.AperFunction,ComponentPad*%
%ADD10O,1.600000X2.000000*%
%TD*%
%TA.AperFunction,ComponentPad*%
%ADD11C,1.905000*%
%TD*%
%TA.AperFunction,ComponentPad*%
%ADD12R,1.980000X3.960000*%
%TD*%
%TA.AperFunction,ComponentPad*%
%ADD13O,1.980000X3.960000*%
%TD*%
%TA.AperFunction,Conductor*%
%ADD14C,0.250000*%
%TD*%
G04 APERTURE END LIST*
D10*
%TO.P,Display1,2,Pin_2*%
%TO.N,Net-(Display1-Pin_2)*%
X136080000Y-96080000D03*
%TO.P,Display1,1,Pin_1*%
%TO.N,Net-(Display1-Pin_1)*%
X133540000Y-96080000D03*
%TO.P,Display1,3,Pin_3*%
%TO.N,Net-(Display1-Pin_3)*%
X138620000Y-96080000D03*
%TO.P,Display1,4,Pin_4*%
%TO.N,Net-(Display1-Pin_4)*%
X141160000Y-96080000D03*
%TD*%
D11*
%TO.P,U1,5V,5V*%
%TO.N,unconnected-(U1-Pad5V)*%
X175260000Y-104140000D03*
%TO.P,U1,G,GND*%
%TO.N,Net-(Display1-Pin_1)*%
X172720000Y-104140000D03*
%TO.P,U1,3.3,3V3*%
%TO.N,Net-(Display1-Pin_2)*%
X170180000Y-104140000D03*
%TO.P,U1,4,GPIO4*%
%TO.N,unconnected-(U1-GPIO4-Pad4)*%
X167640000Y-104140000D03*
%TO.P,U1,3,GPIO3*%
%TO.N,unconnected-(U1-GPIO3-Pad3)*%
X165100000Y-104140000D03*
%TO.P,U1,2,GPIO2*%
%TO.N,unconnected-(U1-GPIO2-Pad2)*%
X162560000Y-104140000D03*
%TO.P,U1,1,GPIO1*%
%TO.N,unconnected-(U1-GPIO1-Pad1)*%
X160020000Y-104140000D03*
%TO.P,U1,0,GPIO0*%
%TO.N,unconnected-(U1-GPIO0-Pad0)*%
X157480000Y-104140000D03*
%TO.P,U1,21,GPIO21*%
%TO.N,unconnected-(U1-GPIO21-Pad21)*%
X157480000Y-88900000D03*
%TO.P,U1,20,GPIO20*%
%TO.N,unconnected-(U1-GPIO20-Pad20)*%
X160020000Y-88900000D03*
%TO.P,U1,10,GPIO10*%
%TO.N,unconnected-(U1-GPIO10-Pad10)*%
X162560000Y-88900000D03*
%TO.P,U1,9,GPIO9*%
%TO.N,unconnected-(U1-GPIO9-Pad9)*%
X165100000Y-88900000D03*
%TO.P,U1,8,GPIO8*%
%TO.N,unconnected-(U1-GPIO8-Pad8)*%
X167640000Y-88900000D03*
%TO.P,U1,7,GPIO7*%
%TO.N,Net-(Display1-Pin_3)*%
X170180000Y-88900000D03*
%TO.P,U1,6,GPIO6*%
%TO.N,Net-(Display1-Pin_4)*%
X172720000Y-88900000D03*
%TO.P,U1,5,GPIO5*%
%TO.N,unconnected-(U1-GPIO5-Pad5)*%
X175260000Y-88900000D03*
%TD*%
D12*
%TO.P,Sensor1,1,Pin_1*%
%TO.N,Net-(Display1-Pin_1)*%
X157560000Y-114300000D03*
D13*
%TO.P,Sensor1,2,Pin_2*%
%TO.N,Net-(Display1-Pin_2)*%
X162560000Y-114300000D03*
%TO.P,Sensor1,3,Pin_3*%
%TO.N,Net-(Display1-Pin_3)*%
X167560000Y-114300000D03*
%TO.P,Sensor1,4,Pin_4*%
%TO.N,Net-(Display1-Pin_4)*%
X172560000Y-114300000D03*
%TD*%
D14*
%TO.N,Net-(Display1-Pin_1)*%
X151760000Y-114300000D02*
X133540000Y-96080000D01*
X157560000Y-114300000D02*
X151760000Y-114300000D01*
X171245000Y-114300000D02*
X171245000Y-105615000D01*
X168491271Y-117053729D02*
X171245000Y-114300000D01*
X163551922Y-117053729D02*
X168491271Y-117053729D01*
X163101922Y-116603729D02*
X163551922Y-117053729D01*
X159863729Y-116603729D02*
X163101922Y-116603729D01*
X171245000Y-105615000D02*
X172720000Y-104140000D01*
X157560000Y-114300000D02*
X159863729Y-116603729D01*
%TO.N,Net-(Display1-Pin_4)*%
X176537500Y-92717500D02*
X172720000Y-88900000D01*
X176537500Y-110322500D02*
X176537500Y-92717500D01*
X172560000Y-114300000D02*
X176537500Y-110322500D01*
%TO.N,Net-(Display1-Pin_2)*%
X170180000Y-114525651D02*
X170180000Y-104140000D01*
X168101922Y-116603729D02*
X170180000Y-114525651D01*
X162560000Y-114300000D02*
X164863729Y-116603729D01*
X164863729Y-116603729D02*
X168101922Y-116603729D01*
X149220000Y-109220000D02*
X157480000Y-109220000D01*
X136080000Y-96080000D02*
X149220000Y-109220000D01*
X157480000Y-109220000D02*
X162560000Y-114300000D01*
%TO.N,Net-(Display1-Pin_3)*%
X159940000Y-106680000D02*
X167560000Y-114300000D01*
X149220000Y-106680000D02*
X159940000Y-106680000D01*
X138620000Y-96080000D02*
X149220000Y-106680000D01*
X149860000Y-101600000D02*
X157480000Y-101600000D01*
X142240000Y-93980000D02*
X149860000Y-101600000D01*
X140720000Y-93980000D02*
X142240000Y-93980000D01*
X157480000Y-101600000D02*
X170180000Y-88900000D01*
X138620000Y-96080000D02*
X140720000Y-93980000D01*
%TO.N,Net-(Display1-Pin_4)*%
X147957500Y-102877500D02*
X156202500Y-102877500D01*
X141160000Y-96080000D02*
X147957500Y-102877500D01*
X158757500Y-102862500D02*
X156217500Y-102862500D01*
X156217500Y-102862500D02*
X156202500Y-102877500D01*
X172720000Y-88900000D02*
X158757500Y-102862500D01*
%TD*%
M02*
